# xmcd CD database file
# Generated: Wed Mar 24 18:15:04 2004 by KSCD
# 
# Track frame offsets:
#       150
#       21370
#       40482
#       63705
#       82442
#       101505
#       122562
#       141062
#       155567
#       172775
#       192125
#       220260
#       235022
#       254000
#
# Disc length: 3585 seconds
#
# Revision: 5
# Processed by: cddbd v1.5PL3 Copyright (c) Steve Scherf et al.
# Submitted via: Kscd 1.3.3
#
DISCID=c90dff0e
DTITLE=ll and the BluesbreakersJohn Mayall and the Bluesbreakers - Silver Tones -
DTITLE=The Best of John Maya
DYEAR=1900
DGENRE=
TTITLE0=Mail Order Mystics
TTITLE1=Wake Up Call
TTITLE2=I Could Cry
TTITLE3=Not At Home
TTITLE4=When the Devil Starts Crying
TTITLE5=Spinning Coin
TTITLE6=Ain't No Brakeman
TTITLE7=No Big Hurry
TTITLE8=Dead City
TTITLE9=Stone Cold Deal
TTITLE10=Blues For the Lost Days
TTITLE11=I Don't Mind
TTITLE12=Movin' Groovin' Blues
TTITLE13=Fan the Flames (Alternate Take)
EXTD=4\nCOPYRIGHT =1998LABEL =Silvertone Records Ltd.\nID =01241-41658-2
EXTD=\nUPC =01241-41658-2
EXTT0=
EXTT1=(Featuring Mavis Staples and Mick Taylor)
EXTT2=(Featuring Buddy Guy)
EXTT3=(Featuring Mick Taylor)
EXTT4=
EXTT5=
EXTT6=
EXTT7=
EXTT8=
EXTT9=
EXTT10=
EXTT11=
EXTT12=
EXTT13=
PLAYORDER=
